<svg width="68" height="52" viewBox="0 0 68 52" fill="none" xmlns="http://www.w3.org/2000/svg">
<path fill-rule="evenodd" clip-rule="evenodd" d="M24.75 6C24.75 4.20507 26.2051 2.75 28 2.75H36C36.4142 2.75 36.75 2.41421 36.75 2C36.75 1.58579 36.4142 1.25 36 1.25H28C25.3766 1.25 23.25 3.37665 23.25 6V18C23.25 20.6234 25.3766 22.75 28 22.75H40C42.6234 22.75 44.75 20.6234 44.75 18V10C44.75 9.58579 44.4142 9.25 44 9.25C43.5858 9.25 43.25 9.58579 43.25 10V13.5091C43.2049 13.473 43.158 13.4387 43.1094 13.4063L40.7285 11.819C39.142 10.7613 37.0295 10.9705 35.6812 12.3188L32.3188 15.6812C30.9705 17.0295 28.858 17.2387 27.2715 16.181L24.75 14.5V6ZM41.75 2C41.75 1.58579 41.4142 1.25 41 1.25C40.5858 1.25 40.25 1.58579 40.25 2V4.25H38C37.5858 4.25 37.25 4.58579 37.25 5C37.25 5.41421 37.5858 5.75 38 5.75H40.25V8C40.25 8.41421 40.5858 8.75 41 8.75C41.4142 8.75 41.75 8.41421 41.75 8V5.75H44C44.4142 5.75 44.75 5.41421 44.75 5C44.75 4.58579 44.4142 4.25 44 4.25H41.75V2ZM30.5 11C31.8807 11 33 9.88071 33 8.5C33 7.11929 31.8807 6 30.5 6C29.1193 6 28 7.11929 28 8.5C28 9.88071 29.1193 11 30.5 11Z" fill="#5458EA"/>
<path d="M4.4657 40.8V37.68H5.2817C5.9937 36.272 6.3497 34.308 6.3497 31.788V30.6H12.2057V37.68H13.2497L13.0457 40.8H11.8217V39H5.9057L5.7617 40.8H4.4657ZM6.8537 37.68H10.7297V31.932H7.7657V32.892C7.7657 34.852 7.4617 36.448 6.8537 37.68ZM17.4103 39.144C16.4503 39.144 15.6503 38.824 15.0103 38.184C14.3703 37.544 14.0503 36.764 14.0503 35.844C14.0503 34.924 14.3743 34.144 15.0223 33.504C15.6703 32.856 16.4743 32.532 17.4343 32.532C18.3943 32.532 19.1943 32.852 19.8343 33.492C20.4823 34.132 20.8063 34.916 20.8063 35.844C20.8063 36.756 20.4823 37.536 19.8343 38.184C19.1863 38.824 18.3783 39.144 17.4103 39.144ZM17.4343 37.884C18.0103 37.884 18.4743 37.688 18.8263 37.296C19.1783 36.904 19.3543 36.42 19.3543 35.844C19.3543 35.276 19.1703 34.796 18.8023 34.404C18.4343 34.004 17.9703 33.804 17.4103 33.804C16.8423 33.804 16.3823 34 16.0303 34.392C15.6783 34.784 15.5023 35.268 15.5023 35.844C15.5023 36.404 15.6863 36.884 16.0543 37.284C16.4223 37.684 16.8823 37.884 17.4343 37.884ZM25.381 37.884C25.917 37.884 26.353 37.7 26.689 37.332C27.033 36.956 27.205 36.492 27.205 35.94C27.205 35.396 27.025 34.936 26.665 34.56C26.313 34.176 25.877 33.984 25.357 33.984C24.829 33.984 24.393 34.172 24.049 34.548C23.713 34.924 23.545 35.388 23.545 35.94C23.545 36.484 23.721 36.944 24.073 37.32C24.425 37.696 24.861 37.884 25.381 37.884ZM25.357 39.144C24.333 39.144 23.533 38.82 22.957 38.172C22.381 37.524 22.093 36.616 22.093 35.448C22.093 35.072 22.101 34.744 22.117 34.464C22.141 34.176 22.181 33.868 22.237 33.54C22.293 33.204 22.377 32.912 22.489 32.664C22.609 32.416 22.757 32.18 22.933 31.956C23.117 31.724 23.349 31.532 23.629 31.38C23.917 31.22 24.249 31.1 24.625 31.02L28.081 30.3L28.321 31.464L24.865 32.22C24.289 32.34 23.877 32.556 23.629 32.868C23.381 33.172 23.237 33.556 23.197 34.02C23.389 33.7 23.689 33.424 24.097 33.192C24.513 32.952 25.025 32.832 25.633 32.832C26.457 32.832 27.165 33.132 27.757 33.732C28.357 34.324 28.657 35.052 28.657 35.916C28.657 36.804 28.341 37.564 27.709 38.196C27.085 38.828 26.301 39.144 25.357 39.144ZM35.4526 39H34.0126V38.22C33.5006 38.828 32.8166 39.132 31.9606 39.132C31.3286 39.132 30.7926 38.96 30.3526 38.616C29.9206 38.264 29.7046 37.776 29.7046 37.152C29.7046 36.472 29.9406 35.956 30.4126 35.604C30.8846 35.252 31.5046 35.076 32.2726 35.076C32.8886 35.076 33.4726 35.164 34.0246 35.34V35.22C34.0246 34.78 33.8886 34.444 33.6166 34.212C33.3526 33.98 32.9686 33.864 32.4646 33.864C31.8886 33.864 31.2846 33.996 30.6526 34.26L30.2566 33.096C31.0406 32.744 31.8446 32.568 32.6686 32.568C33.5886 32.568 34.2806 32.8 34.7446 33.264C35.2166 33.728 35.4526 34.388 35.4526 35.244V39ZM34.0486 36.708V36.348C33.6166 36.18 33.1326 36.096 32.5966 36.096C32.1406 36.096 31.7846 36.184 31.5286 36.36C31.2726 36.536 31.1446 36.784 31.1446 37.104C31.1446 37.392 31.2606 37.62 31.4926 37.788C31.7246 37.956 32.0166 38.04 32.3686 38.04C32.8566 38.04 33.2566 37.916 33.5686 37.668C33.8886 37.42 34.0486 37.1 34.0486 36.708ZM37.1796 39V32.664H40.4316C41.0636 32.664 41.5676 32.808 41.9436 33.096C42.3276 33.376 42.5196 33.76 42.5196 34.248C42.5196 34.912 42.1796 35.396 41.4996 35.7C42.3716 35.948 42.8076 36.476 42.8076 37.284C42.8076 37.82 42.5956 38.24 42.1716 38.544C41.7556 38.848 41.1876 39 40.4676 39H37.1796ZM38.6076 37.848H40.2516C40.5956 37.848 40.8596 37.776 41.0436 37.632C41.2356 37.48 41.3316 37.28 41.3316 37.032C41.3316 36.792 41.2316 36.604 41.0316 36.468C40.8396 36.332 40.5556 36.264 40.1796 36.264H38.6076V37.848ZM38.6076 35.28H40.0956C40.3916 35.28 40.6236 35.208 40.7916 35.064C40.9596 34.92 41.0436 34.732 41.0436 34.5C41.0436 34.284 40.9676 34.112 40.8156 33.984C40.6636 33.848 40.4316 33.78 40.1196 33.78H38.6076V35.28ZM44.2577 39V32.664H45.6737V36.912C47.0017 35.024 48.0017 33.608 48.6737 32.664H50.0417V39H48.6377V34.776L45.6257 39H44.2577ZM53.2192 39V33.912H51.1792V32.664H56.7232V33.912H54.6832V39H53.2192ZM57.8749 39V32.664H59.3269V34.884H60.7789C61.5309 34.884 62.1389 35.052 62.6029 35.388C63.0669 35.724 63.2989 36.224 63.2989 36.888C63.2989 37.544 63.0829 38.06 62.6509 38.436C62.2189 38.812 61.6309 39 60.8869 39H57.8749ZM59.3269 37.824H60.6949C61.0629 37.824 61.3469 37.744 61.5469 37.584C61.7469 37.424 61.8469 37.192 61.8469 36.888C61.8469 36.608 61.7429 36.392 61.5349 36.24C61.3349 36.088 61.0469 36.012 60.6709 36.012H59.3269V37.824ZM22.3834 51.92V49.544C21.9994 49.912 21.5154 50.096 20.9314 50.096C20.1634 50.096 19.5434 49.808 19.0714 49.232C18.5994 48.648 18.3634 47.848 18.3634 46.832C18.3634 45.824 18.5994 45.028 19.0714 44.444C19.5514 43.86 20.1754 43.568 20.9434 43.568C21.4954 43.568 21.9754 43.78 22.3834 44.204V41.6H23.8354V44.204C24.2434 43.78 24.7234 43.568 25.2754 43.568C26.0434 43.568 26.6634 43.864 27.1354 44.456C27.6154 45.04 27.8554 45.836 27.8554 46.844C27.8554 47.86 27.6194 48.656 27.1474 49.232C26.6754 49.808 26.0554 50.096 25.2874 50.096C24.7034 50.096 24.2194 49.912 23.8354 49.544V51.92H22.3834ZM21.3634 48.884C21.7234 48.884 22.0634 48.744 22.3834 48.464V45.248C22.0634 44.952 21.7234 44.804 21.3634 44.804C20.8674 44.804 20.4874 44.988 20.2234 45.356C19.9594 45.724 19.8274 46.224 19.8274 46.856C19.8274 47.496 19.9554 47.996 20.2114 48.356C20.4754 48.708 20.8594 48.884 21.3634 48.884ZM24.8674 48.884C25.3714 48.884 25.7514 48.708 26.0074 48.356C26.2634 47.996 26.3914 47.492 26.3914 46.844C26.3914 46.22 26.2594 45.724 25.9954 45.356C25.7394 44.988 25.3634 44.804 24.8674 44.804C24.5314 44.804 24.1874 44.952 23.8354 45.248V48.464C24.1554 48.744 24.4994 48.884 24.8674 48.884ZM32.3635 50.144C31.4035 50.144 30.6035 49.824 29.9635 49.184C29.3235 48.544 29.0035 47.764 29.0035 46.844C29.0035 45.924 29.3275 45.144 29.9755 44.504C30.6235 43.856 31.4275 43.532 32.3875 43.532C33.3475 43.532 34.1475 43.852 34.7875 44.492C35.4355 45.132 35.7595 45.916 35.7595 46.844C35.7595 47.756 35.4355 48.536 34.7875 49.184C34.1395 49.824 33.3315 50.144 32.3635 50.144ZM32.3875 48.884C32.9635 48.884 33.4275 48.688 33.7795 48.296C34.1315 47.904 34.3075 47.42 34.3075 46.844C34.3075 46.276 34.1235 45.796 33.7555 45.404C33.3875 45.004 32.9235 44.804 32.3635 44.804C31.7955 44.804 31.3355 45 30.9835 45.392C30.6315 45.784 30.4555 46.268 30.4555 46.844C30.4555 47.404 30.6395 47.884 31.0075 48.284C31.3755 48.684 31.8355 48.884 32.3875 48.884ZM38.5942 50V44.912H36.5542V43.664H42.0982V44.912H40.0582V50H38.5942ZM46.2619 50.144C45.3019 50.144 44.5019 49.824 43.8619 49.184C43.2219 48.544 42.9019 47.764 42.9019 46.844C42.9019 45.924 43.2259 45.144 43.8739 44.504C44.5219 43.856 45.3259 43.532 46.2859 43.532C47.2459 43.532 48.0459 43.852 48.6859 44.492C49.3339 45.132 49.6579 45.916 49.6579 46.844C49.6579 47.756 49.3339 48.536 48.6859 49.184C48.0379 49.824 47.2299 50.144 46.2619 50.144ZM46.2859 48.884C46.8619 48.884 47.3259 48.688 47.6779 48.296C48.0299 47.904 48.2059 47.42 48.2059 46.844C48.2059 46.276 48.0219 45.796 47.6539 45.404C47.2859 45.004 46.8219 44.804 46.2619 44.804C45.6939 44.804 45.2339 45 44.8819 45.392C44.5299 45.784 44.3539 46.268 44.3539 46.844C44.3539 47.404 44.5379 47.884 44.9059 48.284C45.2739 48.684 45.7339 48.884 46.2859 48.884Z" fill="#5458EA"/>
</svg>
