<svg width="93" height="109" viewBox="0 0 93 109" fill="none" xmlns="http://www.w3.org/2000/svg">
<path fill-rule="evenodd" clip-rule="evenodd" d="M17.5709 2.7143C26.714 -3.38105 38.7236 2.20704 40.5048 12.4703H58.3337C66.5604 12.4703 73.2295 19.1394 73.2295 27.3661C73.2295 29.6098 71.4106 31.4286 69.167 31.4286C66.9233 31.4286 65.1045 29.6098 65.1045 27.3661C65.1045 23.6267 62.0731 20.5953 58.3337 20.5953H40.7295V88.3036H58.3337C62.0731 88.3036 65.1045 85.2722 65.1045 81.5328C65.1045 79.2891 66.9233 77.4703 69.167 77.4703C71.4106 77.4703 73.2295 79.2891 73.2295 81.5328C73.2295 89.7595 66.5604 96.4286 58.3337 96.4286H40.5048C38.7236 106.692 26.714 112.28 17.5709 106.185L6.7376 98.9624C2.5936 96.1997 0.104492 91.5488 0.104492 86.5683V22.3306C0.104492 17.3501 2.5936 12.6992 6.7376 9.93652L17.5709 2.7143ZM77.1277 66.706C75.5412 65.1194 75.5412 62.5472 77.1277 60.9607L81.0259 57.0625L52.917 57.0625C50.6733 57.0625 48.8545 55.2437 48.8545 53C48.8545 50.7563 50.6733 48.9375 52.917 48.9375L81.0259 48.9375L77.1277 45.0393C75.5412 43.4528 75.5412 40.8806 77.1277 39.294C78.7142 37.7075 81.2864 37.7075 82.8729 39.294L89.8761 46.2972C93.578 49.9991 93.578 56.0009 89.8761 59.7028L82.8729 66.706C81.2864 68.2925 78.7142 68.2925 77.1277 66.706Z" fill="url(#paint0_linear_3275_1372)"/>
<defs>
<linearGradient id="paint0_linear_3275_1372" x1="46.3785" y1="0.1875" x2="46.3785" y2="108.711" gradientUnits="userSpaceOnUse">
<stop stop-color="#F34545"/>
<stop offset="1" stop-color="#FFB4B4"/>
</linearGradient>
</defs>
</svg>
